<svg xmlns="http://www.w3.org/2000/svg" width="1200" height="630" viewBox="0 0 1200 630">
  <defs>
    <linearGradient id="bg" x1="0%" y1="0%" x2="100%" y2="100%">
      <stop offset="0%" style="stop-color:#1E293B"/>
      <stop offset="100%" style="stop-color:#1E2D3D"/>
    </linearGradient>
    <linearGradient id="accent" x1="0%" y1="0%" x2="100%" y2="0%">
      <stop offset="0%" style="stop-color:#FF6B00"/>
      <stop offset="100%" style="stop-color:#FF8C33"/>
    </linearGradient>
  </defs>
  
  <!-- Background -->
  <rect width="1200" height="630" fill="url(#bg)"/>
  
  <!-- Decorative circles -->
  <circle cx="1050" cy="100" r="200" fill="#FF6B00" opacity="0.05"/>
  <circle cx="150" cy="530" r="150" fill="#FF6B00" opacity="0.05"/>
  <circle cx="900" cy="500" r="100" fill="#FF6B00" opacity="0.08"/>
  
  <!-- Decorative grid dots -->
    <circle cx="80" cy="80" r="1.5" fill="white" opacity="0.03284091779418126"/>
  <circle cx="80" cy="140" r="1.5" fill="white" opacity="0.021176479540564955"/>
  <circle cx="80" cy="200" r="1.5" fill="white" opacity="0.05187258031764336"/>
  <circle cx="80" cy="260" r="1.5" fill="white" opacity="0.05217959198278761"/>
  <circle cx="80" cy="320" r="1.5" fill="white" opacity="0.05838820226910174"/>
  <circle cx="80" cy="380" r="1.5" fill="white" opacity="0.07754745868205686"/>
  <circle cx="80" cy="440" r="1.5" fill="white" opacity="0.0465330063401298"/>
  <circle cx="80" cy="500" r="1.5" fill="white" opacity="0.07971084698485693"/>
  <circle cx="80" cy="560" r="1.5" fill="white" opacity="0.03616803259706056"/>
  <circle cx="80" cy="620" r="1.5" fill="white" opacity="0.02073950092570205"/>
  <circle cx="140" cy="80" r="1.5" fill="white" opacity="0.06244883140669549"/>
  <circle cx="140" cy="140" r="1.5" fill="white" opacity="0.07123187586355299"/>
  <circle cx="140" cy="200" r="1.5" fill="white" opacity="0.0330318475534125"/>
  <circle cx="140" cy="260" r="1.5" fill="white" opacity="0.02347988288370624"/>
  <circle cx="140" cy="320" r="1.5" fill="white" opacity="0.06369516977593952"/>
  <circle cx="140" cy="380" r="1.5" fill="white" opacity="0.07430306905025903"/>
  <circle cx="140" cy="440" r="1.5" fill="white" opacity="0.05822292324498585"/>
  <circle cx="140" cy="500" r="1.5" fill="white" opacity="0.03544101968233682"/>
  <circle cx="140" cy="560" r="1.5" fill="white" opacity="0.0625484061844788"/>
  <circle cx="140" cy="620" r="1.5" fill="white" opacity="0.07670166984738473"/>
  <circle cx="200" cy="80" r="1.5" fill="white" opacity="0.05524026266028714"/>
  <circle cx="200" cy="140" r="1.5" fill="white" opacity="0.05729736068970011"/>
  <circle cx="200" cy="200" r="1.5" fill="white" opacity="0.04338167011909694"/>
  <circle cx="200" cy="260" r="1.5" fill="white" opacity="0.0356445723250193"/>
  <circle cx="200" cy="320" r="1.5" fill="white" opacity="0.027135743483221376"/>
  <circle cx="200" cy="380" r="1.5" fill="white" opacity="0.07482241183578063"/>
  <circle cx="200" cy="440" r="1.5" fill="white" opacity="0.035824709202659136"/>
  <circle cx="200" cy="500" r="1.5" fill="white" opacity="0.06493240179079424"/>
  <circle cx="200" cy="560" r="1.5" fill="white" opacity="0.02079482076705"/>
  <circle cx="200" cy="620" r="1.5" fill="white" opacity="0.03555620427860088"/>
  <circle cx="260" cy="80" r="1.5" fill="white" opacity="0.07266110871676394"/>
  <circle cx="260" cy="140" r="1.5" fill="white" opacity="0.06829910582553672"/>
  <circle cx="260" cy="200" r="1.5" fill="white" opacity="0.06641376668693076"/>
  <circle cx="260" cy="260" r="1.5" fill="white" opacity="0.03901921044777631"/>
  <circle cx="260" cy="320" r="1.5" fill="white" opacity="0.046252681515392954"/>
  <circle cx="260" cy="380" r="1.5" fill="white" opacity="0.02655398294761803"/>
  <circle cx="260" cy="440" r="1.5" fill="white" opacity="0.07189959082334346"/>
  <circle cx="260" cy="500" r="1.5" fill="white" opacity="0.027725812674646147"/>
  <circle cx="260" cy="560" r="1.5" fill="white" opacity="0.05120321372460037"/>
  <circle cx="260" cy="620" r="1.5" fill="white" opacity="0.06422077965371717"/>
  <circle cx="320" cy="80" r="1.5" fill="white" opacity="0.0721602742841966"/>
  <circle cx="320" cy="140" r="1.5" fill="white" opacity="0.06000380837987107"/>
  <circle cx="320" cy="200" r="1.5" fill="white" opacity="0.06470200866262868"/>
  <circle cx="320" cy="260" r="1.5" fill="white" opacity="0.04005934898302597"/>
  <circle cx="320" cy="320" r="1.5" fill="white" opacity="0.029363139631441177"/>
  <circle cx="320" cy="380" r="1.5" fill="white" opacity="0.03250755032210407"/>
  <circle cx="320" cy="440" r="1.5" fill="white" opacity="0.02548210637092535"/>
  <circle cx="320" cy="500" r="1.5" fill="white" opacity="0.06336512284035223"/>
  <circle cx="320" cy="560" r="1.5" fill="white" opacity="0.05388426956626022"/>
  <circle cx="320" cy="620" r="1.5" fill="white" opacity="0.0647056478774021"/>
  <circle cx="380" cy="80" r="1.5" fill="white" opacity="0.07549402304690712"/>
  <circle cx="380" cy="140" r="1.5" fill="white" opacity="0.07842547656562272"/>
  <circle cx="380" cy="200" r="1.5" fill="white" opacity="0.07345405776829428"/>
  <circle cx="380" cy="260" r="1.5" fill="white" opacity="0.073277890627597"/>
  <circle cx="380" cy="320" r="1.5" fill="white" opacity="0.05498093774577539"/>
  <circle cx="380" cy="380" r="1.5" fill="white" opacity="0.06318268398325716"/>
  <circle cx="380" cy="440" r="1.5" fill="white" opacity="0.04774397866221361"/>
  <circle cx="380" cy="500" r="1.5" fill="white" opacity="0.04434762474644344"/>
  <circle cx="380" cy="560" r="1.5" fill="white" opacity="0.06400243042076473"/>
  <circle cx="380" cy="620" r="1.5" fill="white" opacity="0.05172149435663444"/>
  <circle cx="440" cy="80" r="1.5" fill="white" opacity="0.07006463941628042"/>
  <circle cx="440" cy="140" r="1.5" fill="white" opacity="0.07008611580658534"/>
  <circle cx="440" cy="200" r="1.5" fill="white" opacity="0.028996115800688366"/>
  <circle cx="440" cy="260" r="1.5" fill="white" opacity="0.05372120727396251"/>
  <circle cx="440" cy="320" r="1.5" fill="white" opacity="0.07780427483296488"/>
  <circle cx="440" cy="380" r="1.5" fill="white" opacity="0.06662573157853116"/>
  <circle cx="440" cy="440" r="1.5" fill="white" opacity="0.03464976828947063"/>
  <circle cx="440" cy="500" r="1.5" fill="white" opacity="0.043628470508644615"/>
  <circle cx="440" cy="560" r="1.5" fill="white" opacity="0.039177794778065336"/>
  <circle cx="440" cy="620" r="1.5" fill="white" opacity="0.07345615971160331"/>
  <circle cx="500" cy="80" r="1.5" fill="white" opacity="0.07432537069704741"/>
  <circle cx="500" cy="140" r="1.5" fill="white" opacity="0.02248220231266519"/>
  <circle cx="500" cy="200" r="1.5" fill="white" opacity="0.05939629509918826"/>
  <circle cx="500" cy="260" r="1.5" fill="white" opacity="0.025841441594702922"/>
  <circle cx="500" cy="320" r="1.5" fill="white" opacity="0.04670601665691322"/>
  <circle cx="500" cy="380" r="1.5" fill="white" opacity="0.02223269433704306"/>
  <circle cx="500" cy="440" r="1.5" fill="white" opacity="0.041898528182162637"/>
  <circle cx="500" cy="500" r="1.5" fill="white" opacity="0.06559588375653798"/>
  <circle cx="500" cy="560" r="1.5" fill="white" opacity="0.05210155074691267"/>
  <circle cx="500" cy="620" r="1.5" fill="white" opacity="0.03724375020530236"/>
  <circle cx="560" cy="80" r="1.5" fill="white" opacity="0.05065373132993417"/>
  <circle cx="560" cy="140" r="1.5" fill="white" opacity="0.02056897725566214"/>
  <circle cx="560" cy="200" r="1.5" fill="white" opacity="0.03223649291060191"/>
  <circle cx="560" cy="260" r="1.5" fill="white" opacity="0.07700167492300167"/>
  <circle cx="560" cy="320" r="1.5" fill="white" opacity="0.0668681335720325"/>
  <circle cx="560" cy="380" r="1.5" fill="white" opacity="0.072158493388786"/>
  <circle cx="560" cy="440" r="1.5" fill="white" opacity="0.07208434900161968"/>
  <circle cx="560" cy="500" r="1.5" fill="white" opacity="0.023300562314191847"/>
  <circle cx="560" cy="560" r="1.5" fill="white" opacity="0.031211411952245298"/>
  <circle cx="560" cy="620" r="1.5" fill="white" opacity="0.032798965629830465"/>
  <circle cx="620" cy="80" r="1.5" fill="white" opacity="0.04023630363211278"/>
  <circle cx="620" cy="140" r="1.5" fill="white" opacity="0.020390045980020376"/>
  <circle cx="620" cy="200" r="1.5" fill="white" opacity="0.06488083773763909"/>
  <circle cx="620" cy="260" r="1.5" fill="white" opacity="0.030098270785693507"/>
  <circle cx="620" cy="320" r="1.5" fill="white" opacity="0.06936217506320146"/>
  <circle cx="620" cy="380" r="1.5" fill="white" opacity="0.062307321793364484"/>
  <circle cx="620" cy="440" r="1.5" fill="white" opacity="0.052755207508933324"/>
  <circle cx="620" cy="500" r="1.5" fill="white" opacity="0.027685552524477963"/>
  <circle cx="620" cy="560" r="1.5" fill="white" opacity="0.04982898828500641"/>
  <circle cx="620" cy="620" r="1.5" fill="white" opacity="0.037878518657198476"/>
  <circle cx="680" cy="80" r="1.5" fill="white" opacity="0.04902928555863036"/>
  <circle cx="680" cy="140" r="1.5" fill="white" opacity="0.04225115832096564"/>
  <circle cx="680" cy="200" r="1.5" fill="white" opacity="0.0705615278305631"/>
  <circle cx="680" cy="260" r="1.5" fill="white" opacity="0.035923651160484064"/>
  <circle cx="680" cy="320" r="1.5" fill="white" opacity="0.04683366941896375"/>
  <circle cx="680" cy="380" r="1.5" fill="white" opacity="0.05506004553590135"/>
  <circle cx="680" cy="440" r="1.5" fill="white" opacity="0.03832819697945724"/>
  <circle cx="680" cy="500" r="1.5" fill="white" opacity="0.07826477626077702"/>
  <circle cx="680" cy="560" r="1.5" fill="white" opacity="0.03653813556488683"/>
  <circle cx="680" cy="620" r="1.5" fill="white" opacity="0.035544295209091366"/>
  <circle cx="740" cy="80" r="1.5" fill="white" opacity="0.03674616287540186"/>
  <circle cx="740" cy="140" r="1.5" fill="white" opacity="0.05694670388035354"/>
  <circle cx="740" cy="200" r="1.5" fill="white" opacity="0.07544724139191682"/>
  <circle cx="740" cy="260" r="1.5" fill="white" opacity="0.06365249248519138"/>
  <circle cx="740" cy="320" r="1.5" fill="white" opacity="0.035880044095327114"/>
  <circle cx="740" cy="380" r="1.5" fill="white" opacity="0.035662489402780335"/>
  <circle cx="740" cy="440" r="1.5" fill="white" opacity="0.0722395601852414"/>
  <circle cx="740" cy="500" r="1.5" fill="white" opacity="0.04960798180817866"/>
  <circle cx="740" cy="560" r="1.5" fill="white" opacity="0.04844229353357557"/>
  <circle cx="740" cy="620" r="1.5" fill="white" opacity="0.02028074520363413"/>
  <circle cx="800" cy="80" r="1.5" fill="white" opacity="0.05546483946655101"/>
  <circle cx="800" cy="140" r="1.5" fill="white" opacity="0.025285614754977714"/>
  <circle cx="800" cy="200" r="1.5" fill="white" opacity="0.02078236467785893"/>
  <circle cx="800" cy="260" r="1.5" fill="white" opacity="0.07744270952793633"/>
  <circle cx="800" cy="320" r="1.5" fill="white" opacity="0.031285582363661746"/>
  <circle cx="800" cy="380" r="1.5" fill="white" opacity="0.07339373458762193"/>
  <circle cx="800" cy="440" r="1.5" fill="white" opacity="0.0654405050564265"/>
  <circle cx="800" cy="500" r="1.5" fill="white" opacity="0.05639140170403274"/>
  <circle cx="800" cy="560" r="1.5" fill="white" opacity="0.07005807799820014"/>
  <circle cx="800" cy="620" r="1.5" fill="white" opacity="0.02799198454572884"/>
  <circle cx="860" cy="80" r="1.5" fill="white" opacity="0.05928709730703871"/>
  <circle cx="860" cy="140" r="1.5" fill="white" opacity="0.06528950883252752"/>
  <circle cx="860" cy="200" r="1.5" fill="white" opacity="0.02353819427262192"/>
  <circle cx="860" cy="260" r="1.5" fill="white" opacity="0.06151255963074008"/>
  <circle cx="860" cy="320" r="1.5" fill="white" opacity="0.07539927712681403"/>
  <circle cx="860" cy="380" r="1.5" fill="white" opacity="0.051597651417374144"/>
  <circle cx="860" cy="440" r="1.5" fill="white" opacity="0.048313677821049186"/>
  <circle cx="860" cy="500" r="1.5" fill="white" opacity="0.022507636230628552"/>
  <circle cx="860" cy="560" r="1.5" fill="white" opacity="0.07282949155382992"/>
  <circle cx="860" cy="620" r="1.5" fill="white" opacity="0.061304781200421585"/>
  <circle cx="920" cy="80" r="1.5" fill="white" opacity="0.07941064123417392"/>
  <circle cx="920" cy="140" r="1.5" fill="white" opacity="0.06674238829385185"/>
  <circle cx="920" cy="200" r="1.5" fill="white" opacity="0.06331089862190727"/>
  <circle cx="920" cy="260" r="1.5" fill="white" opacity="0.03618370696883812"/>
  <circle cx="920" cy="320" r="1.5" fill="white" opacity="0.03564401446298958"/>
  <circle cx="920" cy="380" r="1.5" fill="white" opacity="0.048773497272322386"/>
  <circle cx="920" cy="440" r="1.5" fill="white" opacity="0.02785556865848189"/>
  <circle cx="920" cy="500" r="1.5" fill="white" opacity="0.024014925650693592"/>
  <circle cx="920" cy="560" r="1.5" fill="white" opacity="0.06060678923200716"/>
  <circle cx="920" cy="620" r="1.5" fill="white" opacity="0.07401028646350724"/>
  <circle cx="980" cy="80" r="1.5" fill="white" opacity="0.0696410841771719"/>
  <circle cx="980" cy="140" r="1.5" fill="white" opacity="0.06241311672957853"/>
  <circle cx="980" cy="200" r="1.5" fill="white" opacity="0.05480960096446852"/>
  <circle cx="980" cy="260" r="1.5" fill="white" opacity="0.060584530011330406"/>
  <circle cx="980" cy="320" r="1.5" fill="white" opacity="0.07944477390649846"/>
  <circle cx="980" cy="380" r="1.5" fill="white" opacity="0.056021314520955115"/>
  <circle cx="980" cy="440" r="1.5" fill="white" opacity="0.052733771346467756"/>
  <circle cx="980" cy="500" r="1.5" fill="white" opacity="0.05884472168001226"/>
  <circle cx="980" cy="560" r="1.5" fill="white" opacity="0.07381365152672771"/>
  <circle cx="980" cy="620" r="1.5" fill="white" opacity="0.06908300567333353"/>
  <circle cx="1040" cy="80" r="1.5" fill="white" opacity="0.030359185433864913"/>
  <circle cx="1040" cy="140" r="1.5" fill="white" opacity="0.06722795872520601"/>
  <circle cx="1040" cy="200" r="1.5" fill="white" opacity="0.02990892276038487"/>
  <circle cx="1040" cy="260" r="1.5" fill="white" opacity="0.056085635261477015"/>
  <circle cx="1040" cy="320" r="1.5" fill="white" opacity="0.05337078028783662"/>
  <circle cx="1040" cy="380" r="1.5" fill="white" opacity="0.07350104297957123"/>
  <circle cx="1040" cy="440" r="1.5" fill="white" opacity="0.054610609827571155"/>
  <circle cx="1040" cy="500" r="1.5" fill="white" opacity="0.0702969596192559"/>
  <circle cx="1040" cy="560" r="1.5" fill="white" opacity="0.045466610163905005"/>
  <circle cx="1040" cy="620" r="1.5" fill="white" opacity="0.0702204400804087"/>
  <circle cx="1100" cy="80" r="1.5" fill="white" opacity="0.07847680757094905"/>
  <circle cx="1100" cy="140" r="1.5" fill="white" opacity="0.022401264774738555"/>
  <circle cx="1100" cy="200" r="1.5" fill="white" opacity="0.021483833508062974"/>
  <circle cx="1100" cy="260" r="1.5" fill="white" opacity="0.02418243014336341"/>
  <circle cx="1100" cy="320" r="1.5" fill="white" opacity="0.057948162883408885"/>
  <circle cx="1100" cy="380" r="1.5" fill="white" opacity="0.06496290012920787"/>
  <circle cx="1100" cy="440" r="1.5" fill="white" opacity="0.07541308603225885"/>
  <circle cx="1100" cy="500" r="1.5" fill="white" opacity="0.03744186950341465"/>
  <circle cx="1100" cy="560" r="1.5" fill="white" opacity="0.026402509734283684"/>
  <circle cx="1100" cy="620" r="1.5" fill="white" opacity="0.072078482332764"/>
  <circle cx="1160" cy="80" r="1.5" fill="white" opacity="0.03296061238783992"/>
  <circle cx="1160" cy="140" r="1.5" fill="white" opacity="0.034294677977673535"/>
  <circle cx="1160" cy="200" r="1.5" fill="white" opacity="0.034528304663524786"/>
  <circle cx="1160" cy="260" r="1.5" fill="white" opacity="0.027844425155060304"/>
  <circle cx="1160" cy="320" r="1.5" fill="white" opacity="0.07156540931754075"/>
  <circle cx="1160" cy="380" r="1.5" fill="white" opacity="0.05725318948371419"/>
  <circle cx="1160" cy="440" r="1.5" fill="white" opacity="0.07759879862486008"/>
  <circle cx="1160" cy="500" r="1.5" fill="white" opacity="0.038932477718792796"/>
  <circle cx="1160" cy="560" r="1.5" fill="white" opacity="0.03295596054537355"/>
  <circle cx="1160" cy="620" r="1.5" fill="white" opacity="0.03643818710845474"/>

  
  <!-- Accent line at top -->
  <rect x="0" y="0" width="1200" height="6" fill="url(#accent)"/>
  
  <!-- Icon circle -->
  <circle cx="600" cy="200" r="70" fill="#FF6B00" opacity="0.15"/>
  <text x="600" y="220" font-size="60" text-anchor="middle" dominant-baseline="middle">🎯</text>
  
  <!-- Pillar name -->
  <text x="600" y="330" font-family="Inter, Arial, sans-serif" font-size="48" font-weight="800" fill="white" text-anchor="middle" letter-spacing="-1">Gestão de Milhas</text>
  
  <!-- Subtitle -->
  <text x="600" y="380" font-family="Inter, Arial, sans-serif" font-size="22" fill="#94A3B8" text-anchor="middle">Milhas como Ativo Corporativo</text>
  
  <!-- Divider -->
  <rect x="540" y="420" width="120" height="4" rx="2" fill="url(#accent)"/>
  
  <!-- Velt branding -->
  <text x="600" y="490" font-family="Inter, Arial, sans-serif" font-size="28" font-weight="700" fill="#FF6B00" text-anchor="middle">VELT</text>
  <text x="600" y="520" font-family="Inter, Arial, sans-serif" font-size="16" fill="#64748B" text-anchor="middle">veltcorp.com.br</text>
  
  <!-- Bottom accent bar -->
  <rect x="0" y="624" width="1200" height="6" fill="url(#accent)"/>
</svg>