<svg xmlns="http://www.w3.org/2000/svg" width="1200" height="630" viewBox="0 0 1200 630">
  <defs>
    <linearGradient id="bg" x1="0%" y1="0%" x2="100%" y2="100%">
      <stop offset="0%" style="stop-color:#1E293B"/>
      <stop offset="100%" style="stop-color:#2D3748"/>
    </linearGradient>
    <linearGradient id="accent" x1="0%" y1="0%" x2="100%" y2="0%">
      <stop offset="0%" style="stop-color:#FF6B00"/>
      <stop offset="100%" style="stop-color:#FF8C33"/>
    </linearGradient>
  </defs>
  
  <!-- Background -->
  <rect width="1200" height="630" fill="url(#bg)"/>
  
  <!-- Decorative circles -->
  <circle cx="1050" cy="100" r="200" fill="#FF6B00" opacity="0.05"/>
  <circle cx="150" cy="530" r="150" fill="#FF6B00" opacity="0.05"/>
  <circle cx="900" cy="500" r="100" fill="#FF6B00" opacity="0.08"/>
  
  <!-- Decorative grid dots -->
    <circle cx="80" cy="80" r="1.5" fill="white" opacity="0.020215936265267305"/>
  <circle cx="80" cy="140" r="1.5" fill="white" opacity="0.020615751623690667"/>
  <circle cx="80" cy="200" r="1.5" fill="white" opacity="0.051764782829211806"/>
  <circle cx="80" cy="260" r="1.5" fill="white" opacity="0.02757308945270082"/>
  <circle cx="80" cy="320" r="1.5" fill="white" opacity="0.07676086665779863"/>
  <circle cx="80" cy="380" r="1.5" fill="white" opacity="0.06045946713783197"/>
  <circle cx="80" cy="440" r="1.5" fill="white" opacity="0.06342646543643134"/>
  <circle cx="80" cy="500" r="1.5" fill="white" opacity="0.030661699699931558"/>
  <circle cx="80" cy="560" r="1.5" fill="white" opacity="0.07588148935739117"/>
  <circle cx="80" cy="620" r="1.5" fill="white" opacity="0.06949950978540366"/>
  <circle cx="140" cy="80" r="1.5" fill="white" opacity="0.04585475200025069"/>
  <circle cx="140" cy="140" r="1.5" fill="white" opacity="0.07156262431438744"/>
  <circle cx="140" cy="200" r="1.5" fill="white" opacity="0.040660218590739705"/>
  <circle cx="140" cy="260" r="1.5" fill="white" opacity="0.03246973770870473"/>
  <circle cx="140" cy="320" r="1.5" fill="white" opacity="0.03445007788133604"/>
  <circle cx="140" cy="380" r="1.5" fill="white" opacity="0.04355479780792423"/>
  <circle cx="140" cy="440" r="1.5" fill="white" opacity="0.03913131737702068"/>
  <circle cx="140" cy="500" r="1.5" fill="white" opacity="0.04564177759768526"/>
  <circle cx="140" cy="560" r="1.5" fill="white" opacity="0.0792117220274443"/>
  <circle cx="140" cy="620" r="1.5" fill="white" opacity="0.06905223311554583"/>
  <circle cx="200" cy="80" r="1.5" fill="white" opacity="0.020003255696590654"/>
  <circle cx="200" cy="140" r="1.5" fill="white" opacity="0.06265664627647369"/>
  <circle cx="200" cy="200" r="1.5" fill="white" opacity="0.031282233170993"/>
  <circle cx="200" cy="260" r="1.5" fill="white" opacity="0.03907324438704056"/>
  <circle cx="200" cy="320" r="1.5" fill="white" opacity="0.042686953588067844"/>
  <circle cx="200" cy="380" r="1.5" fill="white" opacity="0.02470859394578461"/>
  <circle cx="200" cy="440" r="1.5" fill="white" opacity="0.03582166587990214"/>
  <circle cx="200" cy="500" r="1.5" fill="white" opacity="0.04925339581286792"/>
  <circle cx="200" cy="560" r="1.5" fill="white" opacity="0.06910037467772738"/>
  <circle cx="200" cy="620" r="1.5" fill="white" opacity="0.07596083114152034"/>
  <circle cx="260" cy="80" r="1.5" fill="white" opacity="0.040686071439731006"/>
  <circle cx="260" cy="140" r="1.5" fill="white" opacity="0.03130209584002076"/>
  <circle cx="260" cy="200" r="1.5" fill="white" opacity="0.0589283071006982"/>
  <circle cx="260" cy="260" r="1.5" fill="white" opacity="0.02201786961603428"/>
  <circle cx="260" cy="320" r="1.5" fill="white" opacity="0.06668978747991752"/>
  <circle cx="260" cy="380" r="1.5" fill="white" opacity="0.03959928472189739"/>
  <circle cx="260" cy="440" r="1.5" fill="white" opacity="0.037414022951409755"/>
  <circle cx="260" cy="500" r="1.5" fill="white" opacity="0.049937110424232864"/>
  <circle cx="260" cy="560" r="1.5" fill="white" opacity="0.07394048090532615"/>
  <circle cx="260" cy="620" r="1.5" fill="white" opacity="0.054894388099158184"/>
  <circle cx="320" cy="80" r="1.5" fill="white" opacity="0.03195202530068022"/>
  <circle cx="320" cy="140" r="1.5" fill="white" opacity="0.04547722905894604"/>
  <circle cx="320" cy="200" r="1.5" fill="white" opacity="0.06331874061243918"/>
  <circle cx="320" cy="260" r="1.5" fill="white" opacity="0.024820378449064335"/>
  <circle cx="320" cy="320" r="1.5" fill="white" opacity="0.057730927823449366"/>
  <circle cx="320" cy="380" r="1.5" fill="white" opacity="0.060693181286028894"/>
  <circle cx="320" cy="440" r="1.5" fill="white" opacity="0.03991408836786348"/>
  <circle cx="320" cy="500" r="1.5" fill="white" opacity="0.07509063533682621"/>
  <circle cx="320" cy="560" r="1.5" fill="white" opacity="0.06362238185194315"/>
  <circle cx="320" cy="620" r="1.5" fill="white" opacity="0.06646268790173578"/>
  <circle cx="380" cy="80" r="1.5" fill="white" opacity="0.049151549346672006"/>
  <circle cx="380" cy="140" r="1.5" fill="white" opacity="0.04057571836528144"/>
  <circle cx="380" cy="200" r="1.5" fill="white" opacity="0.05186833147874151"/>
  <circle cx="380" cy="260" r="1.5" fill="white" opacity="0.07112221031019203"/>
  <circle cx="380" cy="320" r="1.5" fill="white" opacity="0.033590434010395395"/>
  <circle cx="380" cy="380" r="1.5" fill="white" opacity="0.07902318306857001"/>
  <circle cx="380" cy="440" r="1.5" fill="white" opacity="0.05847800063026075"/>
  <circle cx="380" cy="500" r="1.5" fill="white" opacity="0.034379654302407484"/>
  <circle cx="380" cy="560" r="1.5" fill="white" opacity="0.06125319119892833"/>
  <circle cx="380" cy="620" r="1.5" fill="white" opacity="0.028151095051851177"/>
  <circle cx="440" cy="80" r="1.5" fill="white" opacity="0.029954755699414366"/>
  <circle cx="440" cy="140" r="1.5" fill="white" opacity="0.055460617242757984"/>
  <circle cx="440" cy="200" r="1.5" fill="white" opacity="0.07429295554503608"/>
  <circle cx="440" cy="260" r="1.5" fill="white" opacity="0.07980158492370898"/>
  <circle cx="440" cy="320" r="1.5" fill="white" opacity="0.046494598953214714"/>
  <circle cx="440" cy="380" r="1.5" fill="white" opacity="0.047414393281357485"/>
  <circle cx="440" cy="440" r="1.5" fill="white" opacity="0.049743462664248964"/>
  <circle cx="440" cy="500" r="1.5" fill="white" opacity="0.029837256481218467"/>
  <circle cx="440" cy="560" r="1.5" fill="white" opacity="0.04878496774877934"/>
  <circle cx="440" cy="620" r="1.5" fill="white" opacity="0.02686898212139981"/>
  <circle cx="500" cy="80" r="1.5" fill="white" opacity="0.07886119386857837"/>
  <circle cx="500" cy="140" r="1.5" fill="white" opacity="0.030945733211711873"/>
  <circle cx="500" cy="200" r="1.5" fill="white" opacity="0.07717127192230018"/>
  <circle cx="500" cy="260" r="1.5" fill="white" opacity="0.03666098548926011"/>
  <circle cx="500" cy="320" r="1.5" fill="white" opacity="0.06239167690704324"/>
  <circle cx="500" cy="380" r="1.5" fill="white" opacity="0.04627749096157798"/>
  <circle cx="500" cy="440" r="1.5" fill="white" opacity="0.024776183235415847"/>
  <circle cx="500" cy="500" r="1.5" fill="white" opacity="0.07633943256332132"/>
  <circle cx="500" cy="560" r="1.5" fill="white" opacity="0.036784488957652545"/>
  <circle cx="500" cy="620" r="1.5" fill="white" opacity="0.046648453054353944"/>
  <circle cx="560" cy="80" r="1.5" fill="white" opacity="0.036978322222003"/>
  <circle cx="560" cy="140" r="1.5" fill="white" opacity="0.06290046375579263"/>
  <circle cx="560" cy="200" r="1.5" fill="white" opacity="0.07140666824356012"/>
  <circle cx="560" cy="260" r="1.5" fill="white" opacity="0.05991604643135791"/>
  <circle cx="560" cy="320" r="1.5" fill="white" opacity="0.05967314609427951"/>
  <circle cx="560" cy="380" r="1.5" fill="white" opacity="0.06989975817288989"/>
  <circle cx="560" cy="440" r="1.5" fill="white" opacity="0.042981275013285414"/>
  <circle cx="560" cy="500" r="1.5" fill="white" opacity="0.07748349617221796"/>
  <circle cx="560" cy="560" r="1.5" fill="white" opacity="0.07625483086230045"/>
  <circle cx="560" cy="620" r="1.5" fill="white" opacity="0.024105303867485044"/>
  <circle cx="620" cy="80" r="1.5" fill="white" opacity="0.044224492502987905"/>
  <circle cx="620" cy="140" r="1.5" fill="white" opacity="0.035003627879368754"/>
  <circle cx="620" cy="200" r="1.5" fill="white" opacity="0.0277925540806553"/>
  <circle cx="620" cy="260" r="1.5" fill="white" opacity="0.03839587820477333"/>
  <circle cx="620" cy="320" r="1.5" fill="white" opacity="0.07739771801007812"/>
  <circle cx="620" cy="380" r="1.5" fill="white" opacity="0.03769524773311075"/>
  <circle cx="620" cy="440" r="1.5" fill="white" opacity="0.026389334039226463"/>
  <circle cx="620" cy="500" r="1.5" fill="white" opacity="0.02877122729975995"/>
  <circle cx="620" cy="560" r="1.5" fill="white" opacity="0.05333395496270747"/>
  <circle cx="620" cy="620" r="1.5" fill="white" opacity="0.02239705536799814"/>
  <circle cx="680" cy="80" r="1.5" fill="white" opacity="0.04992634999584758"/>
  <circle cx="680" cy="140" r="1.5" fill="white" opacity="0.06599584122183458"/>
  <circle cx="680" cy="200" r="1.5" fill="white" opacity="0.04047081178374215"/>
  <circle cx="680" cy="260" r="1.5" fill="white" opacity="0.07984102313111169"/>
  <circle cx="680" cy="320" r="1.5" fill="white" opacity="0.06414499816596009"/>
  <circle cx="680" cy="380" r="1.5" fill="white" opacity="0.033642540981219465"/>
  <circle cx="680" cy="440" r="1.5" fill="white" opacity="0.07954949954026022"/>
  <circle cx="680" cy="500" r="1.5" fill="white" opacity="0.06072714386181857"/>
  <circle cx="680" cy="560" r="1.5" fill="white" opacity="0.035885422678575085"/>
  <circle cx="680" cy="620" r="1.5" fill="white" opacity="0.03313190819739431"/>
  <circle cx="740" cy="80" r="1.5" fill="white" opacity="0.0483826995692458"/>
  <circle cx="740" cy="140" r="1.5" fill="white" opacity="0.04886534138245763"/>
  <circle cx="740" cy="200" r="1.5" fill="white" opacity="0.06228472265486805"/>
  <circle cx="740" cy="260" r="1.5" fill="white" opacity="0.061060974908556456"/>
  <circle cx="740" cy="320" r="1.5" fill="white" opacity="0.07556528541197839"/>
  <circle cx="740" cy="380" r="1.5" fill="white" opacity="0.052790897762515776"/>
  <circle cx="740" cy="440" r="1.5" fill="white" opacity="0.07187555837434885"/>
  <circle cx="740" cy="500" r="1.5" fill="white" opacity="0.06839710423990769"/>
  <circle cx="740" cy="560" r="1.5" fill="white" opacity="0.033598622042132584"/>
  <circle cx="740" cy="620" r="1.5" fill="white" opacity="0.07612209157260567"/>
  <circle cx="800" cy="80" r="1.5" fill="white" opacity="0.05266628289783186"/>
  <circle cx="800" cy="140" r="1.5" fill="white" opacity="0.04249634671696448"/>
  <circle cx="800" cy="200" r="1.5" fill="white" opacity="0.06463429988150961"/>
  <circle cx="800" cy="260" r="1.5" fill="white" opacity="0.02684804430411064"/>
  <circle cx="800" cy="320" r="1.5" fill="white" opacity="0.030745834520613573"/>
  <circle cx="800" cy="380" r="1.5" fill="white" opacity="0.047151410073373985"/>
  <circle cx="800" cy="440" r="1.5" fill="white" opacity="0.04861209731787801"/>
  <circle cx="800" cy="500" r="1.5" fill="white" opacity="0.023577451889185377"/>
  <circle cx="800" cy="560" r="1.5" fill="white" opacity="0.04208984495399508"/>
  <circle cx="800" cy="620" r="1.5" fill="white" opacity="0.07173505225450036"/>
  <circle cx="860" cy="80" r="1.5" fill="white" opacity="0.03020775553148468"/>
  <circle cx="860" cy="140" r="1.5" fill="white" opacity="0.04090208778498316"/>
  <circle cx="860" cy="200" r="1.5" fill="white" opacity="0.04464857893637862"/>
  <circle cx="860" cy="260" r="1.5" fill="white" opacity="0.03409455094916868"/>
  <circle cx="860" cy="320" r="1.5" fill="white" opacity="0.021640887300734806"/>
  <circle cx="860" cy="380" r="1.5" fill="white" opacity="0.028006087841649048"/>
  <circle cx="860" cy="440" r="1.5" fill="white" opacity="0.04521301012672972"/>
  <circle cx="860" cy="500" r="1.5" fill="white" opacity="0.04220729655076274"/>
  <circle cx="860" cy="560" r="1.5" fill="white" opacity="0.0616521276410181"/>
  <circle cx="860" cy="620" r="1.5" fill="white" opacity="0.05390724539372327"/>
  <circle cx="920" cy="80" r="1.5" fill="white" opacity="0.05765837554879043"/>
  <circle cx="920" cy="140" r="1.5" fill="white" opacity="0.07615901856520156"/>
  <circle cx="920" cy="200" r="1.5" fill="white" opacity="0.06941718065859852"/>
  <circle cx="920" cy="260" r="1.5" fill="white" opacity="0.05187516242077271"/>
  <circle cx="920" cy="320" r="1.5" fill="white" opacity="0.03813072508701247"/>
  <circle cx="920" cy="380" r="1.5" fill="white" opacity="0.025830019941081837"/>
  <circle cx="920" cy="440" r="1.5" fill="white" opacity="0.06410590109421228"/>
  <circle cx="920" cy="500" r="1.5" fill="white" opacity="0.03523138445005854"/>
  <circle cx="920" cy="560" r="1.5" fill="white" opacity="0.0573022202762172"/>
  <circle cx="920" cy="620" r="1.5" fill="white" opacity="0.030718171215871646"/>
  <circle cx="980" cy="80" r="1.5" fill="white" opacity="0.02715867046524177"/>
  <circle cx="980" cy="140" r="1.5" fill="white" opacity="0.024644814456256672"/>
  <circle cx="980" cy="200" r="1.5" fill="white" opacity="0.0782495829599442"/>
  <circle cx="980" cy="260" r="1.5" fill="white" opacity="0.03825755823626599"/>
  <circle cx="980" cy="320" r="1.5" fill="white" opacity="0.051623989590826674"/>
  <circle cx="980" cy="380" r="1.5" fill="white" opacity="0.05018578264177539"/>
  <circle cx="980" cy="440" r="1.5" fill="white" opacity="0.04756592358634512"/>
  <circle cx="980" cy="500" r="1.5" fill="white" opacity="0.05956722043988029"/>
  <circle cx="980" cy="560" r="1.5" fill="white" opacity="0.04043101935772871"/>
  <circle cx="980" cy="620" r="1.5" fill="white" opacity="0.044728054436441234"/>
  <circle cx="1040" cy="80" r="1.5" fill="white" opacity="0.03908204629395853"/>
  <circle cx="1040" cy="140" r="1.5" fill="white" opacity="0.029721384539293905"/>
  <circle cx="1040" cy="200" r="1.5" fill="white" opacity="0.041274317284180906"/>
  <circle cx="1040" cy="260" r="1.5" fill="white" opacity="0.04808052552226043"/>
  <circle cx="1040" cy="320" r="1.5" fill="white" opacity="0.06369182294366053"/>
  <circle cx="1040" cy="380" r="1.5" fill="white" opacity="0.059925835653892714"/>
  <circle cx="1040" cy="440" r="1.5" fill="white" opacity="0.0417276260776512"/>
  <circle cx="1040" cy="500" r="1.5" fill="white" opacity="0.044418341780857434"/>
  <circle cx="1040" cy="560" r="1.5" fill="white" opacity="0.049794680798005427"/>
  <circle cx="1040" cy="620" r="1.5" fill="white" opacity="0.07084693535491582"/>
  <circle cx="1100" cy="80" r="1.5" fill="white" opacity="0.034770078162985656"/>
  <circle cx="1100" cy="140" r="1.5" fill="white" opacity="0.07313820853769783"/>
  <circle cx="1100" cy="200" r="1.5" fill="white" opacity="0.035409223623935684"/>
  <circle cx="1100" cy="260" r="1.5" fill="white" opacity="0.06482723076649247"/>
  <circle cx="1100" cy="320" r="1.5" fill="white" opacity="0.04928896075230113"/>
  <circle cx="1100" cy="380" r="1.5" fill="white" opacity="0.0711104877008862"/>
  <circle cx="1100" cy="440" r="1.5" fill="white" opacity="0.06416249349340103"/>
  <circle cx="1100" cy="500" r="1.5" fill="white" opacity="0.07737232618164491"/>
  <circle cx="1100" cy="560" r="1.5" fill="white" opacity="0.033527620613810545"/>
  <circle cx="1100" cy="620" r="1.5" fill="white" opacity="0.031248389850424597"/>
  <circle cx="1160" cy="80" r="1.5" fill="white" opacity="0.0417979642921375"/>
  <circle cx="1160" cy="140" r="1.5" fill="white" opacity="0.025989039562109434"/>
  <circle cx="1160" cy="200" r="1.5" fill="white" opacity="0.04849378756579077"/>
  <circle cx="1160" cy="260" r="1.5" fill="white" opacity="0.06909859914487407"/>
  <circle cx="1160" cy="320" r="1.5" fill="white" opacity="0.05404151124357859"/>
  <circle cx="1160" cy="380" r="1.5" fill="white" opacity="0.0638516424788916"/>
  <circle cx="1160" cy="440" r="1.5" fill="white" opacity="0.04508728924707393"/>
  <circle cx="1160" cy="500" r="1.5" fill="white" opacity="0.07208174745023944"/>
  <circle cx="1160" cy="560" r="1.5" fill="white" opacity="0.04517713691064282"/>
  <circle cx="1160" cy="620" r="1.5" fill="white" opacity="0.07581277387608408"/>

  
  <!-- Accent line at top -->
  <rect x="0" y="0" width="1200" height="6" fill="url(#accent)"/>
  
  <!-- Icon circle -->
  <circle cx="600" cy="200" r="70" fill="#FF6B00" opacity="0.15"/>
  <text x="600" y="220" font-size="60" text-anchor="middle" dominant-baseline="middle">⚙️</text>
  
  <!-- Pillar name -->
  <text x="600" y="330" font-family="Inter, Arial, sans-serif" font-size="48" font-weight="800" fill="white" text-anchor="middle" letter-spacing="-1">Operação</text>
  
  <!-- Subtitle -->
  <text x="600" y="380" font-family="Inter, Arial, sans-serif" font-size="22" fill="#94A3B8" text-anchor="middle">Operação & Backoffice Eficiente</text>
  
  <!-- Divider -->
  <rect x="540" y="420" width="120" height="4" rx="2" fill="url(#accent)"/>
  
  <!-- Velt branding -->
  <text x="600" y="490" font-family="Inter, Arial, sans-serif" font-size="28" font-weight="700" fill="#FF6B00" text-anchor="middle">VELT</text>
  <text x="600" y="520" font-family="Inter, Arial, sans-serif" font-size="16" fill="#64748B" text-anchor="middle">veltcorp.com.br</text>
  
  <!-- Bottom accent bar -->
  <rect x="0" y="624" width="1200" height="6" fill="url(#accent)"/>
</svg>