<svg xmlns="http://www.w3.org/2000/svg" width="1200" height="630" viewBox="0 0 1200 630">
  <defs>
    <linearGradient id="bg" x1="0%" y1="0%" x2="100%" y2="100%">
      <stop offset="0%" style="stop-color:#1E293B"/>
      <stop offset="100%" style="stop-color:#0F172A"/>
    </linearGradient>
    <linearGradient id="accent" x1="0%" y1="0%" x2="100%" y2="0%">
      <stop offset="0%" style="stop-color:#FF6B00"/>
      <stop offset="100%" style="stop-color:#FF8C33"/>
    </linearGradient>
  </defs>
  
  <!-- Background -->
  <rect width="1200" height="630" fill="url(#bg)"/>
  
  <!-- Decorative circles -->
  <circle cx="1050" cy="100" r="200" fill="#FF6B00" opacity="0.05"/>
  <circle cx="150" cy="530" r="150" fill="#FF6B00" opacity="0.05"/>
  <circle cx="900" cy="500" r="100" fill="#FF6B00" opacity="0.08"/>
  
  <!-- Decorative grid dots -->
    <circle cx="80" cy="80" r="1.5" fill="white" opacity="0.0519021257481254"/>
  <circle cx="80" cy="140" r="1.5" fill="white" opacity="0.032920583472911866"/>
  <circle cx="80" cy="200" r="1.5" fill="white" opacity="0.03901401198919622"/>
  <circle cx="80" cy="260" r="1.5" fill="white" opacity="0.07168881417773545"/>
  <circle cx="80" cy="320" r="1.5" fill="white" opacity="0.0710264467855029"/>
  <circle cx="80" cy="380" r="1.5" fill="white" opacity="0.05312383317630906"/>
  <circle cx="80" cy="440" r="1.5" fill="white" opacity="0.02817471118673169"/>
  <circle cx="80" cy="500" r="1.5" fill="white" opacity="0.026249952608290217"/>
  <circle cx="80" cy="560" r="1.5" fill="white" opacity="0.05949110434033905"/>
  <circle cx="80" cy="620" r="1.5" fill="white" opacity="0.053063213222827754"/>
  <circle cx="140" cy="80" r="1.5" fill="white" opacity="0.07119626757698463"/>
  <circle cx="140" cy="140" r="1.5" fill="white" opacity="0.04588410536914912"/>
  <circle cx="140" cy="200" r="1.5" fill="white" opacity="0.07039648571331214"/>
  <circle cx="140" cy="260" r="1.5" fill="white" opacity="0.020405061639763723"/>
  <circle cx="140" cy="320" r="1.5" fill="white" opacity="0.04279481925052871"/>
  <circle cx="140" cy="380" r="1.5" fill="white" opacity="0.030899977492440295"/>
  <circle cx="140" cy="440" r="1.5" fill="white" opacity="0.033097008247009785"/>
  <circle cx="140" cy="500" r="1.5" fill="white" opacity="0.056606685071662"/>
  <circle cx="140" cy="560" r="1.5" fill="white" opacity="0.06177168680100181"/>
  <circle cx="140" cy="620" r="1.5" fill="white" opacity="0.06793940700158878"/>
  <circle cx="200" cy="80" r="1.5" fill="white" opacity="0.05285275421838696"/>
  <circle cx="200" cy="140" r="1.5" fill="white" opacity="0.031836384147305254"/>
  <circle cx="200" cy="200" r="1.5" fill="white" opacity="0.06418928629154735"/>
  <circle cx="200" cy="260" r="1.5" fill="white" opacity="0.057169394957233485"/>
  <circle cx="200" cy="320" r="1.5" fill="white" opacity="0.06090403472829113"/>
  <circle cx="200" cy="380" r="1.5" fill="white" opacity="0.07450141319833505"/>
  <circle cx="200" cy="440" r="1.5" fill="white" opacity="0.04583084695674263"/>
  <circle cx="200" cy="500" r="1.5" fill="white" opacity="0.03331715877432992"/>
  <circle cx="200" cy="560" r="1.5" fill="white" opacity="0.04496787001500287"/>
  <circle cx="200" cy="620" r="1.5" fill="white" opacity="0.02869069671056487"/>
  <circle cx="260" cy="80" r="1.5" fill="white" opacity="0.057691916951732425"/>
  <circle cx="260" cy="140" r="1.5" fill="white" opacity="0.07983330592186536"/>
  <circle cx="260" cy="200" r="1.5" fill="white" opacity="0.032000320609784014"/>
  <circle cx="260" cy="260" r="1.5" fill="white" opacity="0.03319858517959998"/>
  <circle cx="260" cy="320" r="1.5" fill="white" opacity="0.05548031527572293"/>
  <circle cx="260" cy="380" r="1.5" fill="white" opacity="0.07378506629608096"/>
  <circle cx="260" cy="440" r="1.5" fill="white" opacity="0.031170587773432654"/>
  <circle cx="260" cy="500" r="1.5" fill="white" opacity="0.020400134047617164"/>
  <circle cx="260" cy="560" r="1.5" fill="white" opacity="0.07426041451150682"/>
  <circle cx="260" cy="620" r="1.5" fill="white" opacity="0.03535384169901551"/>
  <circle cx="320" cy="80" r="1.5" fill="white" opacity="0.07665156847925432"/>
  <circle cx="320" cy="140" r="1.5" fill="white" opacity="0.07882118195668054"/>
  <circle cx="320" cy="200" r="1.5" fill="white" opacity="0.023220946982709594"/>
  <circle cx="320" cy="260" r="1.5" fill="white" opacity="0.03239576647930707"/>
  <circle cx="320" cy="320" r="1.5" fill="white" opacity="0.06390661364519395"/>
  <circle cx="320" cy="380" r="1.5" fill="white" opacity="0.024706136760381234"/>
  <circle cx="320" cy="440" r="1.5" fill="white" opacity="0.03135984627191277"/>
  <circle cx="320" cy="500" r="1.5" fill="white" opacity="0.04366827191664585"/>
  <circle cx="320" cy="560" r="1.5" fill="white" opacity="0.0692785634507798"/>
  <circle cx="320" cy="620" r="1.5" fill="white" opacity="0.045886062480792585"/>
  <circle cx="380" cy="80" r="1.5" fill="white" opacity="0.03529309027224198"/>
  <circle cx="380" cy="140" r="1.5" fill="white" opacity="0.05602993998298217"/>
  <circle cx="380" cy="200" r="1.5" fill="white" opacity="0.02340431574227326"/>
  <circle cx="380" cy="260" r="1.5" fill="white" opacity="0.0752093779118725"/>
  <circle cx="380" cy="320" r="1.5" fill="white" opacity="0.06646352151086418"/>
  <circle cx="380" cy="380" r="1.5" fill="white" opacity="0.029900949212578076"/>
  <circle cx="380" cy="440" r="1.5" fill="white" opacity="0.07261847530978216"/>
  <circle cx="380" cy="500" r="1.5" fill="white" opacity="0.065680072540888"/>
  <circle cx="380" cy="560" r="1.5" fill="white" opacity="0.0350768927355613"/>
  <circle cx="380" cy="620" r="1.5" fill="white" opacity="0.025878619727491236"/>
  <circle cx="440" cy="80" r="1.5" fill="white" opacity="0.06922343166353481"/>
  <circle cx="440" cy="140" r="1.5" fill="white" opacity="0.023517325634200323"/>
  <circle cx="440" cy="200" r="1.5" fill="white" opacity="0.05911840546560494"/>
  <circle cx="440" cy="260" r="1.5" fill="white" opacity="0.020502965480927858"/>
  <circle cx="440" cy="320" r="1.5" fill="white" opacity="0.05331061959877541"/>
  <circle cx="440" cy="380" r="1.5" fill="white" opacity="0.050487797653378505"/>
  <circle cx="440" cy="440" r="1.5" fill="white" opacity="0.06491602554260216"/>
  <circle cx="440" cy="500" r="1.5" fill="white" opacity="0.040847743661322156"/>
  <circle cx="440" cy="560" r="1.5" fill="white" opacity="0.07202370569001576"/>
  <circle cx="440" cy="620" r="1.5" fill="white" opacity="0.06253869192158064"/>
  <circle cx="500" cy="80" r="1.5" fill="white" opacity="0.04863030009024542"/>
  <circle cx="500" cy="140" r="1.5" fill="white" opacity="0.0643177135933529"/>
  <circle cx="500" cy="200" r="1.5" fill="white" opacity="0.03201891390038381"/>
  <circle cx="500" cy="260" r="1.5" fill="white" opacity="0.07335822412659194"/>
  <circle cx="500" cy="320" r="1.5" fill="white" opacity="0.03659785690479892"/>
  <circle cx="500" cy="380" r="1.5" fill="white" opacity="0.0526714242468303"/>
  <circle cx="500" cy="440" r="1.5" fill="white" opacity="0.03328940122468383"/>
  <circle cx="500" cy="500" r="1.5" fill="white" opacity="0.040563015167108855"/>
  <circle cx="500" cy="560" r="1.5" fill="white" opacity="0.07601901888982099"/>
  <circle cx="500" cy="620" r="1.5" fill="white" opacity="0.06146244549218127"/>
  <circle cx="560" cy="80" r="1.5" fill="white" opacity="0.06987021596651424"/>
  <circle cx="560" cy="140" r="1.5" fill="white" opacity="0.07740744518693418"/>
  <circle cx="560" cy="200" r="1.5" fill="white" opacity="0.032996054345776814"/>
  <circle cx="560" cy="260" r="1.5" fill="white" opacity="0.04057226833709986"/>
  <circle cx="560" cy="320" r="1.5" fill="white" opacity="0.04744237483396576"/>
  <circle cx="560" cy="380" r="1.5" fill="white" opacity="0.06871571011025665"/>
  <circle cx="560" cy="440" r="1.5" fill="white" opacity="0.06072474544100026"/>
  <circle cx="560" cy="500" r="1.5" fill="white" opacity="0.04868568965662641"/>
  <circle cx="560" cy="560" r="1.5" fill="white" opacity="0.05815833181361421"/>
  <circle cx="560" cy="620" r="1.5" fill="white" opacity="0.059980030867713016"/>
  <circle cx="620" cy="80" r="1.5" fill="white" opacity="0.028052064161834818"/>
  <circle cx="620" cy="140" r="1.5" fill="white" opacity="0.022263230124616992"/>
  <circle cx="620" cy="200" r="1.5" fill="white" opacity="0.06695321242279081"/>
  <circle cx="620" cy="260" r="1.5" fill="white" opacity="0.04252063249945818"/>
  <circle cx="620" cy="320" r="1.5" fill="white" opacity="0.07116671642419632"/>
  <circle cx="620" cy="380" r="1.5" fill="white" opacity="0.0797257585604971"/>
  <circle cx="620" cy="440" r="1.5" fill="white" opacity="0.0647283644871566"/>
  <circle cx="620" cy="500" r="1.5" fill="white" opacity="0.05804096138953625"/>
  <circle cx="620" cy="560" r="1.5" fill="white" opacity="0.05735831152610965"/>
  <circle cx="620" cy="620" r="1.5" fill="white" opacity="0.02726780033193174"/>
  <circle cx="680" cy="80" r="1.5" fill="white" opacity="0.02375315115951778"/>
  <circle cx="680" cy="140" r="1.5" fill="white" opacity="0.04204698789109709"/>
  <circle cx="680" cy="200" r="1.5" fill="white" opacity="0.05266892507977462"/>
  <circle cx="680" cy="260" r="1.5" fill="white" opacity="0.026140512058197563"/>
  <circle cx="680" cy="320" r="1.5" fill="white" opacity="0.031869201472597405"/>
  <circle cx="680" cy="380" r="1.5" fill="white" opacity="0.02533978636483889"/>
  <circle cx="680" cy="440" r="1.5" fill="white" opacity="0.06297735387079406"/>
  <circle cx="680" cy="500" r="1.5" fill="white" opacity="0.028278902846396385"/>
  <circle cx="680" cy="560" r="1.5" fill="white" opacity="0.03430873866201245"/>
  <circle cx="680" cy="620" r="1.5" fill="white" opacity="0.07468849633911273"/>
  <circle cx="740" cy="80" r="1.5" fill="white" opacity="0.06020609497513177"/>
  <circle cx="740" cy="140" r="1.5" fill="white" opacity="0.06957262683765782"/>
  <circle cx="740" cy="200" r="1.5" fill="white" opacity="0.06619882396641397"/>
  <circle cx="740" cy="260" r="1.5" fill="white" opacity="0.036423983440262264"/>
  <circle cx="740" cy="320" r="1.5" fill="white" opacity="0.04771956413875258"/>
  <circle cx="740" cy="380" r="1.5" fill="white" opacity="0.03634508462397047"/>
  <circle cx="740" cy="440" r="1.5" fill="white" opacity="0.07030853435495621"/>
  <circle cx="740" cy="500" r="1.5" fill="white" opacity="0.07662128485433457"/>
  <circle cx="740" cy="560" r="1.5" fill="white" opacity="0.02920371772159171"/>
  <circle cx="740" cy="620" r="1.5" fill="white" opacity="0.03762504303502706"/>
  <circle cx="800" cy="80" r="1.5" fill="white" opacity="0.03851179934705499"/>
  <circle cx="800" cy="140" r="1.5" fill="white" opacity="0.028323010083926375"/>
  <circle cx="800" cy="200" r="1.5" fill="white" opacity="0.0731919495633555"/>
  <circle cx="800" cy="260" r="1.5" fill="white" opacity="0.07080268454832231"/>
  <circle cx="800" cy="320" r="1.5" fill="white" opacity="0.02304762040800473"/>
  <circle cx="800" cy="380" r="1.5" fill="white" opacity="0.05956178537729993"/>
  <circle cx="800" cy="440" r="1.5" fill="white" opacity="0.06954688403758327"/>
  <circle cx="800" cy="500" r="1.5" fill="white" opacity="0.05778280392158602"/>
  <circle cx="800" cy="560" r="1.5" fill="white" opacity="0.0390188370123065"/>
  <circle cx="800" cy="620" r="1.5" fill="white" opacity="0.05308791272086655"/>
  <circle cx="860" cy="80" r="1.5" fill="white" opacity="0.031958930553095496"/>
  <circle cx="860" cy="140" r="1.5" fill="white" opacity="0.02492822020751398"/>
  <circle cx="860" cy="200" r="1.5" fill="white" opacity="0.02926630978114746"/>
  <circle cx="860" cy="260" r="1.5" fill="white" opacity="0.05958628370646363"/>
  <circle cx="860" cy="320" r="1.5" fill="white" opacity="0.07850368832089669"/>
  <circle cx="860" cy="380" r="1.5" fill="white" opacity="0.06050498240614045"/>
  <circle cx="860" cy="440" r="1.5" fill="white" opacity="0.049962278602632096"/>
  <circle cx="860" cy="500" r="1.5" fill="white" opacity="0.06591874646769898"/>
  <circle cx="860" cy="560" r="1.5" fill="white" opacity="0.045891197834244786"/>
  <circle cx="860" cy="620" r="1.5" fill="white" opacity="0.046094186979539764"/>
  <circle cx="920" cy="80" r="1.5" fill="white" opacity="0.06472626268785653"/>
  <circle cx="920" cy="140" r="1.5" fill="white" opacity="0.07987806451446472"/>
  <circle cx="920" cy="200" r="1.5" fill="white" opacity="0.02956562575416076"/>
  <circle cx="920" cy="260" r="1.5" fill="white" opacity="0.06262025392928688"/>
  <circle cx="920" cy="320" r="1.5" fill="white" opacity="0.05192149221600115"/>
  <circle cx="920" cy="380" r="1.5" fill="white" opacity="0.025493458507644288"/>
  <circle cx="920" cy="440" r="1.5" fill="white" opacity="0.04010851949086272"/>
  <circle cx="920" cy="500" r="1.5" fill="white" opacity="0.07224876363771543"/>
  <circle cx="920" cy="560" r="1.5" fill="white" opacity="0.05075467370780775"/>
  <circle cx="920" cy="620" r="1.5" fill="white" opacity="0.03817709491658622"/>
  <circle cx="980" cy="80" r="1.5" fill="white" opacity="0.06526254936101313"/>
  <circle cx="980" cy="140" r="1.5" fill="white" opacity="0.04337770415041558"/>
  <circle cx="980" cy="200" r="1.5" fill="white" opacity="0.041444454021899224"/>
  <circle cx="980" cy="260" r="1.5" fill="white" opacity="0.07427125839448247"/>
  <circle cx="980" cy="320" r="1.5" fill="white" opacity="0.052113081532364616"/>
  <circle cx="980" cy="380" r="1.5" fill="white" opacity="0.04989480066195564"/>
  <circle cx="980" cy="440" r="1.5" fill="white" opacity="0.06878361094777746"/>
  <circle cx="980" cy="500" r="1.5" fill="white" opacity="0.027333235914134488"/>
  <circle cx="980" cy="560" r="1.5" fill="white" opacity="0.047872248111114256"/>
  <circle cx="980" cy="620" r="1.5" fill="white" opacity="0.05728948567208783"/>
  <circle cx="1040" cy="80" r="1.5" fill="white" opacity="0.04799675907501104"/>
  <circle cx="1040" cy="140" r="1.5" fill="white" opacity="0.038014263940345794"/>
  <circle cx="1040" cy="200" r="1.5" fill="white" opacity="0.05078047792382766"/>
  <circle cx="1040" cy="260" r="1.5" fill="white" opacity="0.06511933368741371"/>
  <circle cx="1040" cy="320" r="1.5" fill="white" opacity="0.050467310608118446"/>
  <circle cx="1040" cy="380" r="1.5" fill="white" opacity="0.07353347047458823"/>
  <circle cx="1040" cy="440" r="1.5" fill="white" opacity="0.047375147827530995"/>
  <circle cx="1040" cy="500" r="1.5" fill="white" opacity="0.06362055182615255"/>
  <circle cx="1040" cy="560" r="1.5" fill="white" opacity="0.06128216859742244"/>
  <circle cx="1040" cy="620" r="1.5" fill="white" opacity="0.065602866057464"/>
  <circle cx="1100" cy="80" r="1.5" fill="white" opacity="0.07247437007726007"/>
  <circle cx="1100" cy="140" r="1.5" fill="white" opacity="0.04423272473944054"/>
  <circle cx="1100" cy="200" r="1.5" fill="white" opacity="0.07163198991101719"/>
  <circle cx="1100" cy="260" r="1.5" fill="white" opacity="0.04856485911113712"/>
  <circle cx="1100" cy="320" r="1.5" fill="white" opacity="0.027378104184294445"/>
  <circle cx="1100" cy="380" r="1.5" fill="white" opacity="0.030318567453238576"/>
  <circle cx="1100" cy="440" r="1.5" fill="white" opacity="0.0376809106035381"/>
  <circle cx="1100" cy="500" r="1.5" fill="white" opacity="0.056056857070804614"/>
  <circle cx="1100" cy="560" r="1.5" fill="white" opacity="0.051694600589989995"/>
  <circle cx="1100" cy="620" r="1.5" fill="white" opacity="0.02176179003185788"/>
  <circle cx="1160" cy="80" r="1.5" fill="white" opacity="0.07995713113164138"/>
  <circle cx="1160" cy="140" r="1.5" fill="white" opacity="0.04660755304134161"/>
  <circle cx="1160" cy="200" r="1.5" fill="white" opacity="0.07778558591904307"/>
  <circle cx="1160" cy="260" r="1.5" fill="white" opacity="0.04134124893758974"/>
  <circle cx="1160" cy="320" r="1.5" fill="white" opacity="0.02144364121379828"/>
  <circle cx="1160" cy="380" r="1.5" fill="white" opacity="0.03206493686032074"/>
  <circle cx="1160" cy="440" r="1.5" fill="white" opacity="0.039488597394555944"/>
  <circle cx="1160" cy="500" r="1.5" fill="white" opacity="0.0429382372323753"/>
  <circle cx="1160" cy="560" r="1.5" fill="white" opacity="0.06158544431219695"/>
  <circle cx="1160" cy="620" r="1.5" fill="white" opacity="0.04954600345234958"/>

  
  <!-- Accent line at top -->
  <rect x="0" y="0" width="1200" height="6" fill="url(#accent)"/>
  
  <!-- Icon circle -->
  <circle cx="600" cy="200" r="70" fill="#FF6B00" opacity="0.15"/>
  <text x="600" y="220" font-size="60" text-anchor="middle" dominant-baseline="middle">📉</text>
  
  <!-- Pillar name -->
  <text x="600" y="330" font-family="Inter, Arial, sans-serif" font-size="48" font-weight="800" fill="white" text-anchor="middle" letter-spacing="-1">Redução de Custos</text>
  
  <!-- Subtitle -->
  <text x="600" y="380" font-family="Inter, Arial, sans-serif" font-size="22" fill="#94A3B8" text-anchor="middle">Economia Real para Empresas</text>
  
  <!-- Divider -->
  <rect x="540" y="420" width="120" height="4" rx="2" fill="url(#accent)"/>
  
  <!-- Velt branding -->
  <text x="600" y="490" font-family="Inter, Arial, sans-serif" font-size="28" font-weight="700" fill="#FF6B00" text-anchor="middle">VELT</text>
  <text x="600" y="520" font-family="Inter, Arial, sans-serif" font-size="16" fill="#64748B" text-anchor="middle">veltcorp.com.br</text>
  
  <!-- Bottom accent bar -->
  <rect x="0" y="624" width="1200" height="6" fill="url(#accent)"/>
</svg>